#!OML:ASF X:\für Bonn\!DataBase\2005_08_12_Daniel\c3d\Daniel.ASF
:FULLY-SPECIFIED
:DEGREES
107
root 2.2045 17.5962 18.381 -725.939 19.8363 -1.7043
lowerback 7.97914 2.48002 6.92493
upperback 0.152901 3.72332 -6.27743
thorax -3.4553 1.71765 -11.0583
lowerneck 0.770968 -6.08561 -1.90044
upperneck 7.51085 -8.46633 5.44953
head 2.61341 -4.12829 1.88977
rclavicle -2.79789e-014 1.90833e-014
rhumerus 45.5226 4.73854 -30.1672
rradius 27.8765
rwrist 6.25562
rhand 7.68074 11.4512
rfingers 7.12502
rthumb 32.9234 -15.5651
lclavicle -2.79789e-014 1.90833e-014
lhumerus -38.0326 50.1979 55.0961
lradius 16.7086
lwrist -46.9388
lhand -11.0631 -5.79357
lfingers 7.12502
lthumb 14.9597 23.6461
rfemur 6.72321 17.0412 24.0057
rtibia 16.9273
rfoot -26.088 -27.4655
rtoes -11.1321
lfemur -3.91001 -18.2961 -17.6789
ltibia 32.2691
lfoot -22.2232 1.10077
ltoes -12.7168
108
root 2.20544 17.5933 18.3806 -725.961 19.9463 -1.69518
lowerback 7.99526 2.46305 6.90937
upperback 0.155367 3.70094 -6.23761
thorax -3.47075 1.70585 -11.0035
lowerneck 0.717727 -6.0586 -1.92982
upperneck 7.59028 -8.427 5.36162
head 2.64443 -4.10947 1.86485
rclavicle -2.77677e-014 2.38542e-014
rhumerus 45.2743 4.75528 -30.1486
rradius 28.2808
rwrist 6.56425
rhand 7.45115 11.4843
rfingers 7.12502
rthumb 32.705 -15.5777
lclavicle -2.77677e-014 2.38542e-014
lhumerus -38.7808 50.5754 54.298
lradius 16.5934
lwrist -47.39
lhand -10.9956 -5.6665
lfingers 7.12502
lthumb 15.0247 23.7684
rfemur 6.73299 16.9103 23.9717
rtibia 16.9585
rfoot -26.1274 -27.4218
rtoes -11.2041
lfemur -3.93603 -18.3509 -17.6927
ltibia 32.3191
lfoot -22.2288 1.0047
ltoes -12.6105
109
root 2.20609 17.5917 18.3807 -725.96 20.06 -1.68292
lowerback 7.98515 2.43642 6.88547
upperback 0.147734 3.66347 -6.1974
thorax -3.48625 1.68615 -10.9405
lowerneck 0.71971 -6.0142 -1.97246
upperneck 7.63284 -8.36356 5.29198
head 2.65382 -4.0801 1.85096
rclavicle -1.62755e-014 2.22639e-014
rhumerus 45.0459 4.69755 -30.2762
rradius 28.6555
rwrist 6.98958
rhand 7.27374 11.5783
rfingers 7.12502
rthumb 32.5362 -15.5187
lclavicle -1.62755e-014 2.22639e-014
lhumerus -39.5058 50.8613 53.5374
lradius 16.5053
lwrist -47.6939
lhand -10.8711 -5.52608
lfingers 7.12502
lthumb 15.1446 23.8998
rfemur 6.71686 16.7466 23.9186
rtibia 16.999
rfoot -26.143 -27.3536
rtoes -11.2423
lfemur -3.98873 -18.4035 -17.7003
ltibia 32.3655
lfoot -22.2264 0.905383
ltoes -12.5455
110
root 2.20639 17.5891 18.3806 -725.981 20.1674 -1.68492
lowerback 8.00477 2.41771 6.86096
upperback 0.14091 3.63828 -6.14441
thorax -3.51549 1.67191 -10.8661
lowerneck 0.682118 -5.98616 -2.00096
upperneck 7.69618 -8.3211 5.19359
head 2.67593 -4.06062 1.82323
rclavicle -6.8208e-015 6.36111e-015
rhumerus 44.7981 4.53043 -30.5203
rradius 29.0018
rwrist 7.50017
rhand 7.12325 11.7368
rfingers 7.12502
rthumb 32.393 -15.3895
lclavicle -6.8208e-015 6.36111e-015
lhumerus -40.3398 51.3036 52.6278
lradius 16.3745
lwrist -48.2561
lhand -10.8232 -5.45956
lfingers 7.12502
lthumb 15.1908 23.9628
rfemur 6.70196 16.5294 23.8673
rtibia 17.0471
rfoot -26.1366 -27.2341
rtoes -11.3699
lfemur -4.01871 -18.4489 -17.6958
ltibia 32.4106
lfoot -22.2522 0.786352
ltoes -12.5324
111
root 2.20608 17.5866 18.3801 -725.995 20.2791 -1.67401
lowerback 8.02431 2.39591 6.8104
upperback 0.129574 3.60641 -6.09259
thorax -3.55247 1.65414 -10.7772
lowerneck 0.684174 -5.9495 -2.03437
upperneck 7.73998 -8.26836 5.128
head 2.68602 -4.03625 1.80876
rclavicle 4.57453e-014 -4.92986e-014
rhumerus 44.5542 4.29186 -30.8864
rradius 29.328
rwrist 8.06414
rhand 6.94286 11.9654
rfingers 7.12502
rthumb 32.2213 -15.1959
lclavicle 4.57453e-014 -4.92986e-014
lhumerus -41.0643 51.5541 51.8684
lradius 16.2759
lwrist -48.584
lhand -10.7262 -5.34609
lfingers 7.12502
lthumb 15.2842 24.0692
rfemur 6.67736 16.2778 23.7926
rtibia 17.11
rfoot -26.1041 -27.0587
rtoes -11.4047
lfemur -4.05294 -18.5288 -17.706
ltibia 32.4524
lfoot -22.2508 0.682981
ltoes -12.3694
112
root 2.20526 17.5842 18.3778 -726.013 20.3523 -1.67649
lowerback 8.07856 2.37897 6.7659
upperback 0.109261 3.58315 -6.0366
thorax -3.61624 1.63872 -10.691
lowerneck 0.612991 -5.91788 -1.99657
upperneck 7.82418 -8.21958 4.98635
head 2.71522 -4.01216 1.75448
rclavicle -3.32716e-014 1.59028e-015
rhumerus 44.3275 3.95105 -31.3524
rradius 29.6284
rwrist 8.68553
rhand 6.77652 12.2692
rfingers 7.12502
rthumb 32.0629 -14.9241
lclavicle -3.32716e-014 1.59028e-015
lhumerus -41.8073 51.8132 51.0787
lradius 16.1915
lwrist -48.9047
lhand -10.6682 -5.25693
lfingers 7.12502
lthumb 15.3401 24.1541
rfemur 6.62635 16.0238 23.719
rtibia 17.192
rfoot -26.0699 -26.8473
rtoes -11.4308
lfemur -4.0891 -18.541 -17.6909
ltibia 32.4932
lfoot -22.2461 0.562056
ltoes -12.2516
113
root 2.20575 17.5824 18.3735 -726.01 20.3814 -1.66353
lowerback 8.13341 2.38422 6.71639
upperback 0.0797128 3.58886 -5.99037
thorax -3.68305 1.63749 -10.6159
lowerneck 0.559969 -5.89374 -1.92472
upperneck 7.90498 -8.18148 4.85015
head 2.73913 -3.99262 1.69645
rclavicle 1.22998e-014 1.59028e-014
rhumerus 44.0907 3.51551 -31.9319
rradius 29.9158
rwrist 9.3621
rhand 6.55352 12.5559
rfingers 7.12502
rthumb 31.8506 -14.6799
lclavicle 1.22998e-014 1.59028e-014
lhumerus -42.5348 52.0565 50.2943
lradius 16.1232
lwrist -49.2713
lhand -10.5543 -5.18882
lfingers 7.12502
lthumb 15.4498 24.2138
rfemur 6.52938 15.6906 23.5863
rtibia 17.2868
rfoot -25.9589 -26.5156
rtoes -11.4872
lfemur -4.13642 -18.587 -17.7033
ltibia 32.5333
lfoot -22.2522 0.510001
ltoes -12.1788
114
root 2.2067 17.5801 18.3677 -726.035 20.3915 -1.66437
lowerback 8.22752 2.38843 6.67705
upperback 0.0491107 3.59624 -5.93013
thorax -3.77298 1.63563 -10.5344
lowerneck 0.506611 -5.87428 -1.88828
upperneck 7.98691 -8.14984 4.7246
head 2.76629 -3.97712 1.64784
rclavicle -1.3418e-014 -5.24792e-014
rhumerus 43.8644 2.97888 -32.6431
rradius 30.2193
rwrist 10.0546
rhand 6.41184 12.8496
rfingers 7.12502
rthumb 31.7157 -14.413
lclavicle -1.3418e-014 -5.24792e-014
lhumerus -43.1608 52.145 49.6534
lradius 16.0745
lwrist -49.4694
lhand -10.4787 -5.08784
lfingers 7.12502
lthumb 15.5226 24.3091
rfemur 6.44238 15.3347 23.465
rtibia 17.4042
rfoot -25.863 -26.1458
rtoes -11.4735
lfemur -4.15353 -18.6014 -17.7064
ltibia 32.5722
lfoot -22.251 0.427203
ltoes -12.0003
115
root 2.20711 17.5789 18.3614 -726.051 20.4085 -1.66609
lowerback 8.32281 2.39434 6.63277
upperback 0.0186255 3.60519 -5.87951
thorax -3.86279 1.63472 -10.4611
lowerneck 0.43227 -5.85727 -1.77272
upperneck 8.0717 -8.12094 4.57293
head 2.79297 -3.96109 1.57647
rclavicle -2.83765e-014 1.11319e-014
rhumerus 43.6328 2.27697 -33.6187
rradius 30.5079
rwrist 10.9259
rhand 6.26198 13.1644
rfingers 7.12502
rthumb 31.5729 -14.1263
lclavicle -2.83765e-014 1.11319e-014
lhumerus -43.7967 52.28 48.9696
lradius 16.0332
lwrist -49.7204
lhand -10.4025 -5.02199
lfingers 7.12502
lthumb 15.596 24.3692
rfemur 6.31415 14.8974 23.3259
rtibia 17.5504
rfoot -25.7224 -25.7447
rtoes -11.5599
lfemur -4.18688 -18.6536 -17.707
ltibia 32.6074
lfoot -22.2408 0.372512
ltoes -11.7858
116
root 2.20765 17.577 18.3567 -726.068 20.4504 -1.66694
lowerback 8.39933 2.39274 6.57227
upperback -0.00991683 3.60207 -5.81474
thorax -3.94462 1.6287 -10.3598
lowerneck 0.367969 -5.8382 -1.69458
upperneck 8.156 -8.08869 4.42312
head 2.8197 -3.94467 1.51264
rclavicle 3.15819e-014 5.24792e-014
rhumerus 43.3836 1.59446 -34.5409
rradius 30.909
rwrist 11.573
rhand 6.20711 13.4009
rfingers 7.12502
rthumb 31.5206 -13.9
lclavicle 3.15819e-014 5.24792e-014
lhumerus -44.3771 52.2883 48.4166
lradius 16.0411
lwrist -49.8333
lhand -10.3064 -4.99389
lfingers 7.12502
lthumb 15.6886 24.3901
rfemur 6.18698 14.4231 23.1846
rtibia 17.7187
rfoot -25.5761 -25.3042
rtoes -11.5472
lfemur -4.21213 -18.7356 -17.7095
ltibia 32.6398
lfoot -22.2477 0.293346
ltoes -11.5986
117
root 2.20738 17.575 18.3535 -726.077 20.5522 -1.64319
lowerback 8.44695 2.38304 6.47364
upperback -0.0275838 3.58284 -5.76063
thorax -4.00383 1.61714 -10.2437
lowerneck 0.320951 -5.82898 -1.5863
upperneck 8.21319 -8.06852 4.26494
head 2.8327 -3.93431 1.44145
rclavicle 1.26874e-013 -4.77083e-014
rhumerus 43.1179 0.926774 -35.4103
rradius 31.363
rwrist 12.0709
rhand 6.14335 13.5302
rfingers 7.12502
rthumb 31.4599 -13.7826
lclavicle 1.26874e-013 -4.77083e-014
lhumerus -44.9007 52.2942 47.8891
lradius 16.0257
lwrist -49.9691
lhand -10.2586 -4.97427
lfingers 7.12502
lthumb 15.7346 24.4061
rfemur 6.06624 13.9273 23.0278
rtibia 17.898
rfoot -25.4697 -24.9149
rtoes -11.5165
lfemur -4.25171 -18.8247 -17.7335
ltibia 32.6763
lfoot -22.234 0.181495
ltoes -11.3728
